<svg xmlns="http://www.w3.org/2000/svg" width="1300" height="430" viewBox="0 0 1300 430">
  <style>
    text { font-family: -apple-system, BlinkMacSystemFont, "Segoe UI", Helvetica, Arial, sans-serif; }
    .fill-grpc     { fill: #ede9fe; stroke: #7c3aed; }
    .fill-recv     { fill: #d1fae5; stroke: #059669; }
    .fill-owner    { fill: #fef9c3; stroke: #ca8a04; }
    .fill-invoc    { fill: #fff7ed; stroke: #ea580c; }
    .fill-metrics  { fill: #fce7f3; stroke: #db2777; }
    .fill-consumer { fill: #e0f2fe; stroke: #0284c7; }
    .label-main  { font-size: 13px; font-weight: 600; fill: #1a1a2e; }
    .label-sub   { font-size: 11px; fill: #475569; }
    .label-mono  { font-size: 11px; font-family: "SF Mono", "Fira Code", monospace; fill: #374151; }
    .label-dim   { font-size: 10px; fill: #94a3b8; }
  </style>
  <defs>
    <marker id="ah2" markerWidth="7" markerHeight="5" refX="7" refY="2.5" orient="auto">
      <polygon points="0 0, 7 2.5, 0 5" fill="#94a3b8"/>
    </marker>
    <marker id="ah2-teal" markerWidth="7" markerHeight="5" refX="7" refY="2.5" orient="auto">
      <polygon points="0 0, 7 2.5, 0 5" fill="#059669"/>
    </marker>
    <marker id="ah2-yellow" markerWidth="7" markerHeight="5" refX="7" refY="2.5" orient="auto">
      <polygon points="0 0, 7 2.5, 0 5" fill="#ca8a04"/>
    </marker>
    <marker id="ah2-blue" markerWidth="7" markerHeight="5" refX="7" refY="2.5" orient="auto">
      <polygon points="0 0, 7 2.5, 0 5" fill="#0284c7"/>
    </marker>
    <marker id="ah2-pink" markerWidth="7" markerHeight="5" refX="7" refY="2.5" orient="auto">
      <polygon points="0 0, 7 2.5, 0 5" fill="#db2777"/>
    </marker>
  </defs>

  <rect width="100%" height="100%" fill="#ffffff"/>

  <text x="125" y="18" text-anchor="middle" class="label-dim" font-weight="700">CONCURRENT gRPC GOROUTINES</text>
  <text x="574" y="18" text-anchor="middle" class="label-dim" font-weight="700">OWNER GOROUTINE (single-threaded)</text>
  <text x="1162" y="18" text-anchor="middle" class="label-dim" font-weight="700">SIGNAL CONSUMERS</text>

  <line x1="325" y1="25" x2="325" y2="420" stroke="#e2e8f0" stroke-width="1" stroke-dasharray="4 3"/>
  <line x1="942" y1="25" x2="942" y2="420" stroke="#e2e8f0" stroke-width="1" stroke-dasharray="4 3"/>

  <rect x="20" y="32" width="210" height="60" rx="8" class="fill-recv"/>
  <text x="125" y="54" text-anchor="middle" class="label-main">receiver.go</text>
  <text x="125" y="71" text-anchor="middle" class="label-mono">PublishBuildToolEventStream()</text>
  <text x="125" y="84" text-anchor="middle" class="label-sub">Start · Shutdown · refCount</text>

  <rect x="30" y="115" width="190" height="78" rx="8" fill="#f0fdf4" stroke="#86efac" stroke-width="1.5"/>
  <text x="125" y="137" text-anchor="middle" class="label-sub" font-weight="600">goroutine A  (stream)</text>
  <text x="125" y="153" text-anchor="middle" class="label-mono">recv OrderedBuildEvent</text>
  <text x="125" y="169" text-anchor="middle" class="label-mono">→ ParseBazelEvent()</text>
  <text x="125" y="183" text-anchor="middle" class="label-mono">→ send to eventCh</text>

  <rect x="30" y="200" width="190" height="78" rx="8" fill="#f0fdf4" stroke="#86efac" stroke-width="1.5"/>
  <text x="125" y="222" text-anchor="middle" class="label-sub" font-weight="600">goroutine B  (stream)</text>
  <text x="125" y="238" text-anchor="middle" class="label-mono">recv OrderedBuildEvent</text>
  <text x="125" y="254" text-anchor="middle" class="label-mono">→ ParseBazelEvent()</text>
  <text x="125" y="268" text-anchor="middle" class="label-mono">→ send to eventCh</text>

  <rect x="30" y="285" width="190" height="45" rx="8" fill="#f8fafc" stroke="#cbd5e1" stroke-width="1" stroke-dasharray="4 3"/>
  <text x="125" y="311" text-anchor="middle" class="label-dim">goroutine N  · · ·</text>

  <rect x="30" y="350" width="190" height="70" rx="8" class="fill-grpc"/>
  <text x="125" y="378" text-anchor="middle" class="label-main">bepparser.go</text>
  <text x="125" y="395" text-anchor="middle" class="label-mono">anypb.Any → bep.BuildEvent</text>
  <text x="125" y="410" text-anchor="middle" class="label-sub">called per gRPC goroutine</text>

  <rect x="340" y="32" width="468" height="380" rx="10" fill="#fefce8" stroke="#fbbf24" stroke-width="2"/>
  <text x="574" y="52" text-anchor="middle" class="label-main" font-size="14">tracebuilder.go  —  owner goroutine</text>

  <rect x="352" y="65" width="444" height="40" rx="6" fill="#fef3c7" stroke="#f59e0b" stroke-width="1.5"/>
  <text x="574" y="82" text-anchor="middle" class="label-mono">eventCh  chan eventMsg  (buffered 64)</text>
  <text x="574" y="94" text-anchor="middle" class="label-dim">one writer per gRPC goroutine · one reader: owner</text>

  <rect x="352" y="112" width="200" height="72" rx="8" class="fill-owner"/>
  <text x="452" y="134" text-anchor="middle" class="label-main">processEvent()</text>
  <text x="452" y="151" text-anchor="middle" class="label-mono">switch event type {</text>
  <text x="452" y="165" text-anchor="middle" class="label-mono">BuildStarted | Action |</text>
  <text x="452" y="177" text-anchor="middle" class="label-mono">TestResult | Finished …</text>

  <rect x="352" y="202" width="200" height="60" rx="8" class="fill-invoc"/>
  <text x="452" y="224" text-anchor="middle" class="label-main">invocations map</text>
  <text x="452" y="241" text-anchor="middle" class="label-mono">invocationID → *state</text>
  <text x="452" y="256" text-anchor="middle" class="label-sub">keyed by Bazel UUID</text>

  <rect x="352" y="278" width="200" height="120" rx="8" fill="#fff7ed" stroke="#fb923c" stroke-width="1.5"/>
  <text x="452" y="298" text-anchor="middle" class="label-main">invocationState</text>
  <text x="452" y="315" text-anchor="middle" class="label-mono">traceID  rootSpanID</text>
  <text x="452" y="330" text-anchor="middle" class="label-mono">targets map[label]Span</text>
  <text x="452" y="345" text-anchor="middle" class="label-mono">pendingTraces ptrace.Traces</text>
  <text x="452" y="360" text-anchor="middle" class="label-mono">orphanedSpans map</text>
  <text x="452" y="375" text-anchor="middle" class="label-mono">pii PIIConfig</text>
  <text x="452" y="390" text-anchor="middle" class="label-dim">finalize() → ptrace.Traces</text>

  <rect x="570" y="112" width="220" height="56" rx="8" class="fill-metrics"/>
  <text x="680" y="132" text-anchor="middle" class="label-main">reaper ticker</text>
  <text x="680" y="149" text-anchor="middle" class="label-mono">every reaper_interval (5m)</text>
  <text x="680" y="162" text-anchor="middle" class="label-mono">flush stale &gt; invocation_timeout</text>

  <rect x="570" y="185" width="220" height="72" rx="8" class="fill-metrics"/>
  <text x="680" y="206" text-anchor="middle" class="label-main">metricsbuilder.go</text>
  <text x="680" y="223" text-anchor="middle" class="label-mono">buildInvocationGauges()</text>
  <text x="680" y="239" text-anchor="middle" class="label-sub">wall_time · cpu_time · actions</text>
  <text x="680" y="252" text-anchor="middle" class="label-sub">heap · cumulative counters</text>

  <rect x="570" y="275" width="220" height="56" rx="8" fill="#fdf2f8" stroke="#f0abfc" stroke-width="1.5"/>
  <text x="680" y="295" text-anchor="middle" class="label-main">cumulativeCounters</text>
  <text x="680" y="312" text-anchor="middle" class="label-mono">totalWallTimeMs</text>
  <text x="680" y="325" text-anchor="middle" class="label-mono">totalActionsExecuted …</text>

  <rect x="570" y="348" width="220" height="58" rx="8" fill="#f1f5f9" stroke="#94a3b8" stroke-width="1.5"/>
  <text x="680" y="368" text-anchor="middle" class="label-main">config.go  /  PIIConfig</text>
  <text x="680" y="383" text-anchor="middle" class="label-mono">hostname · username · cmd_line</text>
  <text x="680" y="396" text-anchor="middle" class="label-sub">all opt-in (default: off)</text>

  <line x1="452" y1="184" x2="452" y2="202" stroke="#ca8a04" stroke-width="1.5" marker-end="url(#ah2-yellow)"/>
  <line x1="452" y1="262" x2="452" y2="278" stroke="#ea580c" stroke-width="1.5" marker-end="url(#ah2)"/>
  <line x1="680" y1="257" x2="680" y2="275" stroke="#db2777" stroke-width="1.5" marker-end="url(#ah2-pink)"/>

  <rect x="962" y="70" width="200" height="56" rx="8" class="fill-consumer"/>
  <text x="1062" y="93" text-anchor="middle" class="label-main">tracesConsumer</text>
  <text x="1062" y="110" text-anchor="middle" class="label-mono">consumer.Traces</text>
  <text x="1062" y="120" text-anchor="middle" class="label-dim">(required)</text>

  <rect x="962" y="145" width="200" height="56" rx="8" class="fill-consumer"/>
  <text x="1062" y="168" text-anchor="middle" class="label-main">logsConsumer</text>
  <text x="1062" y="185" text-anchor="middle" class="label-mono">consumer.Logs</text>
  <text x="1062" y="195" text-anchor="middle" class="label-dim">(optional)</text>

  <rect x="962" y="220" width="200" height="56" rx="8" class="fill-consumer"/>
  <text x="1062" y="243" text-anchor="middle" class="label-main">metricsConsumer</text>
  <text x="1062" y="260" text-anchor="middle" class="label-mono">consumer.Metrics</text>
  <text x="1062" y="270" text-anchor="middle" class="label-dim">(optional)</text>

  <rect x="962" y="305" width="200" height="76" rx="8" fill="#f1f5f9" stroke="#cbd5e1" stroke-width="1.5"/>
  <text x="1062" y="325" text-anchor="middle" class="label-sub" font-weight="700">Shared receiver</text>
  <text x="1062" y="342" text-anchor="middle" class="label-mono">one gRPC server</text>
  <text x="1062" y="357" text-anchor="middle" class="label-mono">per endpoint</text>
  <text x="1062" y="371" text-anchor="middle" class="label-dim">factory.go sharedReceivers</text>

  <path d="M220,154 H280 V81 H352" stroke="#059669" stroke-width="1.5" fill="none" marker-end="url(#ah2-teal)"/>
  <path d="M220,239 H280 V81 H352" stroke="#059669" stroke-width="1.5" fill="none" marker-end="url(#ah2-teal)"/>

  <path d="M352,100 H302 V262 H220" stroke="#94a3b8" stroke-width="1.2" stroke-dasharray="4 2" fill="none" marker-end="url(#ah2)"/>
  <text x="261" y="276" text-anchor="middle" class="label-dim" font-size="10" fill="#94a3b8">error channel</text>

  <path d="M808,128 H885 V98 H962" stroke="#0284c7" stroke-width="1.5" fill="none" marker-end="url(#ah2-blue)"/>
  <text x="885" y="87" text-anchor="middle" class="label-dim" font-size="10" fill="#0284c7">ConsumeTraces()</text>

  <path d="M808,173 H962" stroke="#0284c7" stroke-width="1.5" fill="none" marker-end="url(#ah2-blue)"/>
  <text x="885" y="162" text-anchor="middle" class="label-dim" font-size="10" fill="#0284c7">ConsumeLogs()</text>

  <path d="M808,221 H885 V248 H962" stroke="#db2777" stroke-width="1.5" fill="none" marker-end="url(#ah2-pink)"/>
  <text x="885" y="210" text-anchor="middle" class="label-dim" font-size="10" fill="#db2777">ConsumeMetrics()</text>
</svg>
