<svg xmlns="http://www.w3.org/2000/svg" width="1100" height="430" viewBox="0 0 1100 430">
  <style>
    text { font-family: -apple-system, BlinkMacSystemFont, "Segoe UI", Helvetica, Arial, sans-serif; }
    .fill-bazel    { fill: #dbeafe; stroke: #3b82f6; }
    .fill-grpc     { fill: #ede9fe; stroke: #7c3aed; }
    .fill-recv     { fill: #d1fae5; stroke: #059669; }
    .fill-owner    { fill: #fef9c3; stroke: #ca8a04; }
    .fill-metrics  { fill: #fce7f3; stroke: #db2777; }
    .label-main  { font-size: 13px; font-weight: 600; fill: #1a1a2e; }
    .label-sub   { font-size: 11px; fill: #475569; }
    .label-mono  { font-size: 11px; font-family: "SF Mono", "Fira Code", monospace; fill: #374151; }
    .label-dim   { font-size: 10px; fill: #94a3b8; }
    .tree-line { stroke: #cbd5e1; stroke-width: 1.5; fill: none; }
  </style>

  <rect width="100%" height="100%" fill="#ffffff"/>

  <rect x="20" y="20" width="220" height="62" rx="8" class="fill-recv"/>
  <text x="130" y="42" text-anchor="middle" class="label-main">bazel.build  (root span)</text>
  <text x="130" y="58" text-anchor="middle" class="label-mono">traceID = SHA256(invocation_uuid)</text>
  <text x="130" y="70" text-anchor="middle" class="label-sub">command · exit_code · uuid</text>

  <line x1="130" y1="82"  x2="130" y2="375" class="tree-line"/>
  <line x1="130" y1="133" x2="290" y2="133" class="tree-line"/>
  <line x1="130" y1="267" x2="290" y2="267" class="tree-line"/>
  <line x1="130" y1="375" x2="290" y2="375" class="tree-line"/>

  <rect x="290" y="106" width="200" height="54" rx="8" class="fill-bazel"/>
  <text x="390" y="127" text-anchor="middle" class="label-main">bazel.target</text>
  <text x="390" y="143" text-anchor="middle" class="label-mono">//pkg:lib</text>
  <text x="390" y="156" text-anchor="middle" class="label-sub">rule_kind · status · output_groups</text>

  <line x1="490" y1="133" x2="510" y2="133" class="tree-line"/>
  <line x1="510" y1="113" x2="510" y2="175" class="tree-line"/>
  <line x1="510" y1="113" x2="530" y2="113" class="tree-line"/>
  <line x1="510" y1="175" x2="530" y2="175" class="tree-line"/>

  <rect x="530" y="86"  width="200" height="54" rx="8" class="fill-owner"/>
  <text x="630" y="111" text-anchor="middle" class="label-main">bazel.action  Javac</text>
  <text x="630" y="125" text-anchor="middle" class="label-mono">mnemonic · exit_code · timing</text>

  <rect x="530" y="148" width="200" height="54" rx="8" class="fill-owner"/>
  <text x="630" y="173" text-anchor="middle" class="label-main">bazel.action  Turbine</text>
  <text x="630" y="187" text-anchor="middle" class="label-mono">command_line [PII-gated]</text>

  <rect x="290" y="240" width="200" height="54" rx="8" class="fill-bazel"/>
  <text x="390" y="261" text-anchor="middle" class="label-main">bazel.target</text>
  <text x="390" y="277" text-anchor="middle" class="label-mono">//pkg:test</text>
  <text x="390" y="290" text-anchor="middle" class="label-sub">test_summary: pass/fail counts</text>

  <line x1="490" y1="267" x2="510" y2="267" class="tree-line"/>
  <line x1="510" y1="247" x2="510" y2="309" class="tree-line"/>
  <line x1="510" y1="247" x2="530" y2="247" class="tree-line"/>
  <line x1="510" y1="309" x2="530" y2="309" class="tree-line"/>

  <rect x="530" y="220" width="200" height="54" rx="8" class="fill-grpc"/>
  <text x="630" y="245" text-anchor="middle" class="label-main">bazel.test  shard=0 run=1</text>
  <text x="630" y="259" text-anchor="middle" class="label-mono">status · duration_ms · attempt</text>

  <rect x="530" y="282" width="200" height="54" rx="8" class="fill-grpc"/>
  <text x="630" y="307" text-anchor="middle" class="label-main">bazel.test  shard=1 run=1</text>
  <text x="630" y="321" text-anchor="middle" class="label-mono">status · duration_ms · attempt</text>

  <rect x="290" y="344" width="200" height="62" rx="8" class="fill-metrics"/>
  <text x="390" y="369" text-anchor="middle" class="label-main">bazel.metrics</text>
  <text x="390" y="385" text-anchor="middle" class="label-mono">wall_time · cpu_time</text>
  <text x="390" y="398" text-anchor="middle" class="label-sub">actions_executed · heap</text>

  <rect x="790" y="20" width="290" height="200" rx="10" fill="#f8fafc" stroke="#e2e8f0" stroke-width="1.5"/>
  <text x="935" y="42" text-anchor="middle" class="label-sub" font-weight="700">PII-gated attributes</text>
  <text x="935" y="58" text-anchor="middle" class="label-dim">(all opt-in via config, default: omitted)</text>

  <rect x="810" y="68" width="10" height="10" rx="2" fill="#7c3aed"/>
  <text x="828" y="78" class="label-mono">bazel.host</text>
  <text x="828" y="91" class="label-dim">include_hostname: true</text>

  <rect x="810" y="104" width="10" height="10" rx="2" fill="#7c3aed"/>
  <text x="828" y="114" class="label-mono">bazel.user</text>
  <text x="828" y="127" class="label-dim">include_username: true</text>

  <rect x="810" y="140" width="10" height="10" rx="2" fill="#7c3aed"/>
  <text x="828" y="150" class="label-mono">bazel.workspace_directory</text>
  <text x="828" y="163" class="label-dim">include_workspace_dir: true</text>

  <rect x="810" y="176" width="10" height="10" rx="2" fill="#7c3aed"/>
  <text x="828" y="186" class="label-mono">bazel.action.command_line</text>
  <text x="828" y="199" class="label-dim">include_command_args: true</text>

  <rect x="790" y="235" width="290" height="90" rx="10" fill="#f8fafc" stroke="#e2e8f0" stroke-width="1.5"/>
  <text x="935" y="257" text-anchor="middle" class="label-sub" font-weight="700">Deterministic IDs</text>
  <text x="810" y="278" class="label-mono">traceID  = SHA256(uuid)[0:16]</text>
  <text x="810" y="295" class="label-mono">spanID   = SHA256(uuid+type+…)[0:8]</text>
  <text x="810" y="312" class="label-dim">same build → same trace ID always</text>
</svg>
