<svg xmlns="http://www.w3.org/2000/svg" width="1160" height="620" viewBox="0 0 1160 620">
  <style>
    text { font-family: -apple-system, BlinkMacSystemFont, "Segoe UI", Helvetica, Arial, sans-serif; }
    .fill-main     { fill: #f1f5f9; stroke: #64748b; }
    .fill-svc      { fill: #e0f2fe; stroke: #0284c7; }
    .fill-factory  { fill: #ede9fe; stroke: #7c3aed; }
    .fill-recv     { fill: #d1fae5; stroke: #059669; }
    .fill-grpc     { fill: #fef9c3; stroke: #ca8a04; }
    .label-main  { font-size: 13px; font-weight: 600; fill: #1a1a2e; }
    .label-sub   { font-size: 11px; fill: #475569; }
    .label-mono  { font-size: 11px; font-family: "SF Mono", "Fira Code", monospace; fill: #374151; }
    .label-arrow { font-size: 11px; font-family: "SF Mono", "Fira Code", monospace; fill: #374151; }
    .label-dim   { font-size: 10px; fill: #94a3b8; }
    .lifeline { stroke: #cbd5e1; stroke-width: 1.2; stroke-dasharray: 4 3; fill: none; }
    .arrow { stroke-width: 1.5; fill: none; }
    .arrow-slate  { stroke: #64748b; }
    .arrow-sky    { stroke: #0284c7; }
    .arrow-purple { stroke: #7c3aed; }
    .arrow-green  { stroke: #059669; }
    .arrow-yellow { stroke: #ca8a04; }
    .arrow-dashed { stroke-dasharray: 5 3; }
    .stage-label { font-size: 10px; font-weight: 700; fill: #94a3b8; letter-spacing: 0.5px; }
    .note-rect { fill: #fef9c3; stroke: #ca8a04; stroke-width: 1.2; }
    .phase-rect { fill: #f8fafc; stroke: #e2e8f0; stroke-width: 1; stroke-dasharray: 4 3; }
  </style>
  <defs>
    <marker id="mh-slate"  markerWidth="8" markerHeight="6" refX="8" refY="3" orient="auto"><polygon points="0 0, 8 3, 0 6" fill="#64748b"/></marker>
    <marker id="mh-sky"    markerWidth="8" markerHeight="6" refX="8" refY="3" orient="auto"><polygon points="0 0, 8 3, 0 6" fill="#0284c7"/></marker>
    <marker id="mh-purple" markerWidth="8" markerHeight="6" refX="8" refY="3" orient="auto"><polygon points="0 0, 8 3, 0 6" fill="#7c3aed"/></marker>
    <marker id="mh-green"  markerWidth="8" markerHeight="6" refX="8" refY="3" orient="auto"><polygon points="0 0, 8 3, 0 6" fill="#059669"/></marker>
    <marker id="mh-yellow" markerWidth="8" markerHeight="6" refX="8" refY="3" orient="auto"><polygon points="0 0, 8 3, 0 6" fill="#ca8a04"/></marker>
  </defs>

  <rect width="100%" height="100%" fill="#ffffff"/>

  <!-- Actor headers -->
  <rect x="30"   y="20" width="170" height="48" rx="8" class="fill-main"/>
  <text x="115"  y="42" text-anchor="middle" class="label-main">otelcol-bazel</text>
  <text x="115"  y="58" text-anchor="middle" class="label-mono">main()</text>

  <rect x="250"  y="20" width="180" height="48" rx="8" class="fill-svc"/>
  <text x="340"  y="42" text-anchor="middle" class="label-main">Collector Service</text>
  <text x="340"  y="58" text-anchor="middle" class="label-sub">component lifecycle</text>

  <rect x="480"  y="20" width="200" height="48" rx="8" class="fill-factory"/>
  <text x="580"  y="42" text-anchor="middle" class="label-main">besreceiver Factory</text>
  <text x="580"  y="58" text-anchor="middle" class="label-mono">factory.go</text>

  <rect x="730"  y="20" width="190" height="48" rx="8" class="fill-recv"/>
  <text x="825"  y="42" text-anchor="middle" class="label-main">besreceiver</text>
  <text x="825"  y="58" text-anchor="middle" class="label-mono">receiver.go</text>

  <rect x="970"  y="20" width="170" height="48" rx="8" class="fill-grpc"/>
  <text x="1055" y="42" text-anchor="middle" class="label-main">gRPC Server</text>
  <text x="1055" y="58" text-anchor="middle" class="label-sub">google.golang.org/grpc</text>

  <!-- Lifelines -->
  <line x1="115"  y1="68" x2="115"  y2="600" class="lifeline"/>
  <line x1="340"  y1="68" x2="340"  y2="600" class="lifeline"/>
  <line x1="580"  y1="68" x2="580"  y2="600" class="lifeline"/>
  <line x1="825"  y1="68" x2="825"  y2="600" class="lifeline"/>
  <line x1="1055" y1="68" x2="1055" y2="600" class="lifeline"/>

  <!-- Phase: Startup -->
  <rect x="18" y="86" width="1130" height="256" rx="8" class="phase-rect"/>
  <text x="30" y="104" class="stage-label">STARTUP</text>

  <!-- main → Service: Run -->
  <line x1="115" y1="124" x2="340" y2="124" class="arrow arrow-slate" marker-end="url(#mh-slate)"/>
  <text x="227" y="118" text-anchor="middle" class="label-arrow">Run(collector-config.yaml)</text>

  <!-- Service → Factory: CreateTraces -->
  <line x1="340" y1="150" x2="580" y2="150" class="arrow arrow-sky" marker-end="url(#mh-sky)"/>
  <text x="460" y="144" text-anchor="middle" class="label-arrow">CreateTraces(settings, config, consumer)</text>

  <!-- Factory → Service: besReceiver instance -->
  <line x1="580" y1="174" x2="340" y2="174" class="arrow arrow-purple arrow-dashed" marker-end="url(#mh-purple)"/>
  <text x="460" y="168" text-anchor="middle" class="label-arrow">besReceiver instance</text>

  <!-- Service → Receiver: Start -->
  <line x1="340" y1="200" x2="825" y2="200" class="arrow arrow-sky" marker-end="url(#mh-sky)"/>
  <text x="582" y="194" text-anchor="middle" class="label-arrow">Start(ctx, host)</text>

  <!-- Receiver → gRPC: ToServer -->
  <line x1="825" y1="226" x2="1055" y2="226" class="arrow arrow-green" marker-end="url(#mh-green)"/>
  <text x="940" y="220" text-anchor="middle" class="label-arrow">ServerConfig.ToServer()</text>

  <!-- Receiver → gRPC: RegisterPublishBuildEventServer -->
  <line x1="825" y1="250" x2="1055" y2="250" class="arrow arrow-green" marker-end="url(#mh-green)"/>
  <text x="940" y="244" text-anchor="middle" class="label-arrow">RegisterPublishBuildEventServer()</text>

  <!-- Receiver → gRPC: Listen -->
  <line x1="825" y1="274" x2="1055" y2="274" class="arrow arrow-green" marker-end="url(#mh-green)"/>
  <text x="940" y="268" text-anchor="middle" class="label-arrow">Listen(0.0.0.0:8082)</text>

  <!-- Receiver → gRPC: go Serve() -->
  <line x1="825" y1="298" x2="1055" y2="298" class="arrow arrow-green" marker-end="url(#mh-green)"/>
  <text x="940" y="292" text-anchor="middle" class="label-arrow">go Serve()</text>

  <!-- Receiver → Service: nil (started) -->
  <line x1="825" y1="324" x2="340" y2="324" class="arrow arrow-green arrow-dashed" marker-end="url(#mh-green)"/>
  <text x="582" y="318" text-anchor="middle" class="label-arrow">nil  (started)</text>

  <!-- Running phase separator -->
  <rect x="18" y="360" width="1130" height="80" rx="8" class="phase-rect"/>
  <text x="30" y="378" class="stage-label">RUNNING</text>

  <rect x="260" y="390" width="640" height="38" rx="6" class="note-rect"/>
  <text x="580" y="408" text-anchor="middle" class="label-sub" font-weight="700">Collector running — accepting BEP streams from Bazel invocations</text>
  <text x="580" y="422" text-anchor="middle" class="label-mono">gRPC server handles PublishBuildToolEventStream concurrently</text>

  <!-- Shutdown phase -->
  <rect x="18" y="458" width="1130" height="138" rx="8" class="phase-rect"/>
  <text x="30" y="476" class="stage-label">SHUTDOWN</text>

  <!-- Service → Receiver: Shutdown -->
  <line x1="340" y1="498" x2="825" y2="498" class="arrow arrow-sky" marker-end="url(#mh-sky)"/>
  <text x="582" y="492" text-anchor="middle" class="label-arrow">Shutdown(ctx)</text>

  <!-- Receiver → gRPC: GracefulStop -->
  <line x1="825" y1="524" x2="1055" y2="524" class="arrow arrow-green" marker-end="url(#mh-green)"/>
  <text x="940" y="518" text-anchor="middle" class="label-arrow">GracefulStop()</text>

  <rect x="944" y="534" width="220" height="20" rx="4" class="note-rect"/>
  <text x="1054" y="548" text-anchor="middle" class="label-mono">Drain active streams</text>

  <!-- Receiver → Service: nil (stopped) -->
  <line x1="825" y1="578" x2="340" y2="578" class="arrow arrow-green arrow-dashed" marker-end="url(#mh-green)"/>
  <text x="582" y="572" text-anchor="middle" class="label-arrow">nil  (stopped)</text>
</svg>
